<?xml version="1.0" encoding="UTF-8"?><svg id="_レイヤー_2" xmlns="http://www.w3.org/2000/svg" viewBox="0 0 121.77779 40"><defs><style>.cls-1{fill:#f7b400;}.cls-2{fill:#fff;}</style></defs><g id="_レイヤー_1-2"><rect class="cls-1" width="121.77779" height="31.11112"/><path class="cls-2" d="m15.80807,15.9585c-.15625,1.04883-.42188,1.90479-.84375,2.68799-.85547,1.60352-2.00098,2.58008-3.43555,3.37549-.06055.03613-.1084.06006-.14453.06006-.06055,0-.1084-.03613-.22949-.12012l-1.36133-1.0127c1.5791-.78369,2.66406-1.67578,3.375-3.02588.28906-.5542.50586-1.19336.63867-1.96484h-1.10938l-1.72363.03613-.08398-.09619v-1.5791l.1084-.07227,1.6875.03613h1.31445c.02344-.54248.04785-1.14551.04785-1.83252l.08398-.09619h1.80859l.08398.08398c0,.67529-.01172,1.29004-.04785,1.84473h2.0127l1.4834-.03613.08398.1084c-.08398,1.94043-.28906,4.21875-.51855,5.18311-.37305,1.59131-.72266,2.31445-2.90527,2.31445-.31348,0-.3252-.02393-.40918-.2168l-.71191-1.6875c.4707.02393.9043.03613,1.33887.02393.37305-.01221.61426-.08447.84375-1.04883.15625-.66309.28906-1.89258.33691-2.96533h-1.72363Z"/><path class="cls-2" d="m22.88717,14.8374l1.16895-1.31396.12109-.02393c.72363.36182,1.6875,1.00049,2.44727,1.66357v.12061l-1.25391,1.4585-.1084.01172c-.72363-.69873-1.53125-1.28955-2.36328-1.80811l-.01172-.1084Zm9.34277,1.00049c.03613.09668.04785.16895.04785.229,0,.08447-.03613.13281-.12109.21729-2.14551,2.3623-4.76074,4.12256-7.94336,5.56885l-.12109-.02393-1.08398-1.62744.02344-.12061c2.99023-1.14502,6.07617-3.2666,8.53516-6.13574l.66309,1.89258Z"/><path class="cls-2" d="m43.50338,14.46387c.08496.09619.13281.14453.13281.2168,0,.04834-.01172.1084-.06055.20508-.56641,1.22949-1.20508,2.32666-1.9043,3.27881.38574.32568.77148.6748,1.14551,1.06055v.13281l-1.16992,1.30176-.1084.01221c-.34961-.38574-.69922-.73535-1.06055-1.08496-1.09668,1.12109-2.41113,2.04932-4.0625,2.88086-.1084.06055-.18066.08447-.22852.08447-.08496,0-.15723-.03613-.27734-.12061l-1.41113-.96436c1.94141-.83154,3.48438-1.86816,4.6416-3.0376-.41016-.31348-.85645-.62695-1.35059-.92822v-.12061l1.02441-1.12109.13281-.01172c.44629.26514.87988.53027,1.29004.80762.42188-.59082.7959-1.2417,1.07324-1.89258l-2.33887.01172c-.7832,1.08496-1.61523,2.01318-2.45898,2.78467-.22949.16895-.28906.15674-.50684.01221l-1.31348-.84375c1.60352-1.2417,3.0498-2.98975,3.90527-4.94238l.12109-.03613,1.63867.59082.02441.13232c-.13281.26514-.27734.51855-.42188.77148l1.65137-.02393.98828-.07227.9043.91602Z"/><path class="cls-2" d="m47.0024,14.8374l1.16895-1.31396.12109-.02393c.72363.36182,1.6875,1.00049,2.44727,1.66357v.12061l-1.25391,1.4585-.1084.01172c-.72363-.69873-1.53125-1.28955-2.36328-1.80811l-.01172-.1084Zm9.34277,1.00049c.03613.09668.04785.16895.04785.229,0,.08447-.03613.13281-.12109.21729-2.14551,2.3623-4.76074,4.12256-7.94336,5.56885l-.12109-.02393-1.08398-1.62744.02344-.12061c2.99023-1.14502,6.07617-3.2666,8.53516-6.13574l.66309,1.89258Z"/><path class="cls-2" d="m60.53658,11.21533c.43457-2.06152,2.13379-3.63477,4.97266-3.63477,2.58594,0,4.50195,1.24756,4.50195,3.56201,0,1.13916-.74121,2.56787-2.7666,3.12842,2.02539.36182,3.29102,1.53711,3.29102,3.70654,0,2.36865-1.95215,4.15869-5.1709,4.15869-2.71191,0-4.37598-1.03027-5.35254-3.34473l3.25488-1.22949c.14453,1.33789.7959,2.29639,2.00684,2.29639,1.15723,0,1.60938-.86816,1.60938-1.77246,0-1.44629-1.06641-2.0791-2.47656-2.0791h-1.24805l.56055-2.62207h.9043c1.24707,0,2.06152-.81348,2.06152-1.98877,0-1.06689-.72363-1.59131-1.51953-1.59131-.9043,0-1.48242.59668-1.75391,2.06152l-2.875-.65088Z"/><path class="cls-2" d="m81.78561,14.79541c0,4.93604-1.42871,7.25049-4.9541,7.25049-3.54395,0-4.99023-2.31445-4.99023-7.25049,0-4.90039,1.44629-7.21484,4.99023-7.21484,3.52539,0,4.9541,2.31445,4.9541,7.21484Zm-3.43555,0c0-3.94189-.34375-5.11719-1.51855-5.11719-1.22949,0-1.59082,1.17529-1.59082,5.11719,0,3.95996.36133,5.09912,1.59082,5.09912,1.1748,0,1.51855-1.13916,1.51855-5.09912Z"/><path class="cls-2" d="m84.33834,12.87842l-.12695-.1084v-1.9707l.1084-.1084,2.08008.0542h.27051v-1.55518c-.36133.0542-.72266.09033-1.03027.12646-.23535.01807-.36133-.0542-.41602-.14453l-.97656-1.66357c2.20605-.19873,3.4541-.39795,5.02734-.92188l.18066.01807c.75977.56055,1.21094.95801,1.73535,1.48242l-.05371.18066c-.72363.18115-1.44629.34375-2.13379.50635v1.97119l1.89844-.0542.09082.09033v2.00684l-.09082.09033-1.89844-.0542v2.04346l.61523-.47021.19824.01807c.7959.79541,1.22949,1.39258,1.73633,2.18799l-.01855.18066-1.3916,1.17529h-.18164c-.28906-.52441-.59668-1.06689-.95801-1.57275v1.06641l.12695,6.16602h-2.56836l.12695-6.38281c-.23535.88623-.56055,1.73584-1.08496,2.67627-.05371.1084-.14453.1626-.2168.1626-.09082,0-.19922-.07227-.27148-.19873l-1.10254-1.80859c.95801-1.39209,1.68164-3.01953,2.27832-5.24365l-1.95312.0542Zm4.97266,8.48047c5.20703-.84961,7.54004-2.20605,9.72754-5.94873l.18066-.01807,1.91699,1.19336.07227.1626c-2.56738,4.26758-5.65918,5.93066-10.21582,6.78076-.23535.03613-.34375.01807-.43457-.14453l-1.24707-2.02539Zm5.08105-11.01172l.07227.18066c-.48828,2.06152-1.15723,3.68896-1.89844,5.04492-.07227.1084-.14551.1626-.23535.1626-.05469,0-.12695-.01807-.19922-.07227l-1.79004-1.03027c.9043-1.66357,1.50098-3.11035,1.88086-4.99072l.16211-.0542,2.00781.75928Zm2.9834,5.94873c0,1.79004-1.19336,2.53174-3.32715,2.53174-.34375,0-.37988-.03613-.45215-.21729l-.88574-2.24219c.72266.01855,1.24707.01855,1.62695-.01807.37988-.03613.48828-.1084.48828-.54199V6.62256l.12695-.12695h2.20605l.12598.12695v5.29785l.09082,4.37549Zm2.16992-1.22949l-.18164-.0542c-.46973-1.66357-1.04785-3.16406-1.87988-4.71924l.08984-.1626,1.77246-.83203.18066.07227c.9043,1.50098,1.62793,2.94775,2.15137,4.64697l-.08984.16309-2.04297.88574Z"/><path class="cls-2" d="m110.10982,20.67188c0,.9585-.79492,1.73584-1.73535,1.73584-.95898,0-1.75391-.77734-1.75391-1.73584s.79492-1.75391,1.75391-1.75391c.94043,0,1.73535.79541,1.73535,1.75391Zm-.3252-3.21875h-2.83887V7.77979h2.83887v9.67334Z"/><polygon class="cls-1" points="107.07296 40 117.08038 22.66665 97.06555 22.66665 107.07296 40"/></g></svg>